<?xml version="1.0" encoding="UTF-8"?>
<svg id="Layer_2" data-name="Layer 2" xmlns="http://www.w3.org/2000/svg" viewBox="0 0 58.87 58.87">
  <defs>
    <style>
      .cls-1 {
        fill: #fff;
      }

      .cls-2 {
        fill: #00f7ef;
      }

      .cls-3 {
        fill: #3c3c3b;
      }

      .cls-4 {
        fill: #ff004f;
      }
    </style>
  </defs>
  <g id="Icons">
    <g>
      <rect class="cls-3" width="58.87" height="58.87"/>
      <g>
        <path class="cls-4" d="m44.36,23.38v5.56c-.97-.09-2.23-.31-3.63-.83-1.82-.67-3.18-1.58-4.07-2.29v11.23l-.02-.04c.02.22.02.45.02.68,0,5.58-4.54,10.12-10.12,10.12s-10.12-4.54-10.12-10.12,4.54-10.12,10.12-10.12c.55,0,1.08.04,1.61.13v5.48c-.5-.18-1.04-.28-1.61-.28-2.64,0-4.79,2.15-4.79,4.79s2.15,4.79,4.79,4.79,4.79-2.15,4.79-4.79c0-.1,0-.2,0-.3V15.57h5.56c.02.47.04.94.06,1.41.04.93.37,1.82.94,2.54.68.86,1.67,1.85,3.07,2.64,1.31.74,2.54,1.06,3.41,1.21Z"/>
        <path class="cls-2" d="m42.45,18.87v5.56c-.97-.09-2.23-.31-3.63-.83-1.82-.67-3.18-1.58-4.07-2.29v11.23l-.02-.04c.02.22.02.45.02.68,0,5.58-4.54,10.12-10.12,10.12s-10.12-4.54-10.12-10.12,4.54-10.12,10.12-10.12c.55,0,1.08.04,1.61.13v5.48c-.5-.18-1.04-.28-1.61-.28-2.64,0-4.79,2.15-4.79,4.79s2.15,4.79,4.79,4.79,4.79-2.15,4.79-4.79c0-.1,0-.2,0-.3V11.05h5.56c.02.47.04.94.06,1.41.04.93.37,1.82.94,2.54.68.86,1.67,1.85,3.07,2.64,1.31.74,2.54,1.06,3.41,1.21Z"/>
        <path class="cls-1" d="m43.67,21.3v5.56c-.97-.09-2.23-.31-3.63-.83-1.82-.67-3.18-1.58-4.07-2.29v11.23l-.02-.04c.02.22.02.45.02.68,0,5.58-4.54,10.12-10.12,10.12s-10.12-4.54-10.12-10.12,4.54-10.12,10.12-10.12c.55,0,1.08.04,1.61.13v5.48c-.5-.18-1.04-.28-1.61-.28-2.64,0-4.79,2.15-4.79,4.79s2.15,4.79,4.79,4.79,4.79-2.15,4.79-4.79c0-.1,0-.2,0-.3V13.48h5.56c.02.47.04.94.06,1.41.04.93.37,1.82.94,2.54.68.86,1.67,1.85,3.07,2.64,1.31.74,2.54,1.06,3.41,1.21Z"/>
      </g>
    </g>
  </g>
</svg>